# xmcd
#
# Track frame offsets: 
#        150
#        10715
#        20155
#        32142
#        44182
#        50345
#        59267
#        69027
#        78642
#        94350
#        112812
#        126650
#        139990
#        151820
#        161932
#        170915
#        179365
#        192047
#        203810
#        218242
#        233857
#        247980
#        260010
#
# Disc length: 3717 seconds
#
# Revision: 10
# Processed by: cddbd v1.5.2PL0 Copyright (c) Steve Scherf et al.
# Submitted via: ExactAudioCopyFreeDBPlugin 1.0
#
DISCID=530e8317
DTITLE=Roger Miller - King of the Road^ The Genius of Roger Miller [di
DTITLE=sc 3]
DYEAR=1995
DGENRE=Country
TTITLE0=The Ballad of Waterhole No. 3
TTITLE1=Old Toy Trains
TTITLE2=Little Green Apples
TTITLE3=What I'd Give to Be the Wind
TTITLE4=Boeing, Boeing 707
TTITLE5=Treat Me Like a Human [outtake]
TTITLE6=What Are Those Things (With Big Black Wings)
TTITLE7=Only Daddy That'll Walk the Line
TTITLE8=Swiss Cottage Place
TTITLE9=Me and Bobbie Mcgee
TTITLE10=Where Have All the Average People Gone
TTITLE11=The Best of All Possible Worlds
TTITLE12=Invitation to the Blues
TTITLE13=Tall, Tall Trees
TTITLE14=Don't We All Have the Right
TTITLE15=That's the Way I Feel
TTITLE16=Half a Mind
TTITLE17=Hoppy's Gone
TTITLE18=What Would Mama Say
TTITLE19=Orange Blossom Special [live]
TTITLE20=Old Friends [with Ray Price and Willie Nelson]
TTITLE21=Guv'ment
TTITLE22=River in the Rain
EXTD=
EXTT0=
EXTT1=
EXTT2=
EXTT3=
EXTT4=
EXTT5=
EXTT6=
EXTT7=
EXTT8=
EXTT9=
EXTT10=
EXTT11=
EXTT12=
EXTT13=
EXTT14=
EXTT15=
EXTT16=
EXTT17=
EXTT18=
EXTT19=
EXTT20=
EXTT21=
EXTT22=
PLAYORDER=
